<?xml version="1.0" standalone="no"?>
<!DOCTYPE svg PUBLIC "-//W3C//DTD SVG 20010904//EN"
 "http://www.w3.org/TR/2001/REC-SVG-20010904/DTD/svg10.dtd">
<svg version="1.0" xmlns="http://www.w3.org/2000/svg"
 width="1719.000000pt" height="447.000000pt" viewBox="0 0 1719.000000 447.000000"
 preserveAspectRatio="xMidYMid meet">

<g transform="translate(0.000000,447.000000) scale(0.100000,-0.100000)"
fill="#000000" stroke="none">
<path d="M8572 3973 c-11 -10 -126 -198 -255 -418 -219 -375 -345 -584 -582
-970 -224 -365 -340 -603 -391 -803 -44 -174 -24 -262 59 -262 43 0 61 33 62
113 3 138 128 428 305 707 51 80 121 192 155 250 216 363 735 1313 735 1345 0
23 -32 55 -56 55 -7 0 -21 -8 -32 -17z"/>
<path d="M2905 3859 c-38 -11 -117 -42 -173 -69 -341 -163 -605 -400 -930
-834 -258 -346 -437 -657 -565 -981 -84 -214 -115 -325 -164 -584 -38 -208
-31 -300 26 -331 95 -50 146 39 458 805 85 209 209 511 275 670 l120 290 96
114 c282 334 530 548 777 671 141 70 231 93 273 69 54 -30 65 -98 36 -237 -71
-347 -362 -789 -937 -1426 -393 -435 -425 -475 -434 -545 -7 -53 1 -83 34
-122 44 -52 94 -69 203 -69 246 0 1032 156 1580 315 493 142 1328 416 1655
543 371 144 580 233 605 258 37 36 35 102 -4 143 -51 53 -61 52 -338 -57 -603
-238 -1260 -456 -2103 -697 -631 -181 -1222 -315 -1386 -315 l-30 0 20 26 c11
14 126 137 254 272 418 440 619 688 798 984 185 304 282 577 283 793 1 159
-45 254 -148 308 -60 30 -188 33 -281 6z m-1368 -1666 c-2 -5 -55 -124 -117
-265 -63 -142 -115 -256 -117 -254 -13 13 214 526 233 526 3 0 3 -3 1 -7z"/>
<path d="M11066 3367 c-17 -17 -28 -51 -45 -137 -163 -833 -466 -1483 -802
-1723 -109 -77 -191 -111 -279 -115 -95 -4 -142 20 -177 88 -43 84 -41 107 13
179 81 108 164 175 752 609 122 89 224 172 227 183 10 30 -20 69 -53 69 -19 0
-93 -47 -239 -149 -513 -360 -752 -564 -825 -705 -17 -32 -19 -52 -15 -105 9
-123 69 -214 172 -263 216 -102 555 67 803 401 207 278 424 764 532 1190 30
119 80 380 80 419 0 72 -93 110 -144 59z"/>
<path d="M12345 2904 c-465 -360 -688 -560 -701 -629 -10 -57 19 -106 83 -140
2 -1 -35 -40 -80 -87 -183 -190 -213 -353 -86 -480 130 -130 372 -168 654
-104 87 20 115 31 133 51 26 31 28 52 6 83 -26 38 -50 40 -163 16 -200 -44
-349 -41 -462 8 -63 27 -109 78 -109 121 0 63 92 187 226 306 59 53 75 61 138
75 78 18 166 63 190 98 24 33 20 84 -6 102 -37 26 -96 20 -173 -18 -39 -19
-83 -44 -100 -55 -34 -24 -92 -27 -119 -8 -16 12 -12 19 51 78 38 35 201 171
363 301 397 317 434 350 438 377 5 30 -25 61 -57 60 -18 0 -89 -49 -226 -155z"/>
<path d="M14204 2851 c-131 -116 -240 -208 -243 -207 -3 2 -138 84 -300 181
-172 104 -305 178 -319 178 -52 0 -70 -68 -27 -101 13 -11 142 -95 285 -187
144 -93 257 -171 253 -175 -128 -111 -268 -243 -478 -450 -143 -141 -301 -291
-352 -334 -50 -42 -94 -84 -97 -92 -16 -43 10 -84 53 -84 28 0 203 145 376
310 66 63 194 182 285 264 91 82 204 187 251 233 l85 84 145 -86 c79 -48 221
-125 314 -171 157 -78 184 -88 365 -134 286 -71 354 -79 770 -91 524 -16 868
-2 926 36 44 29 44 102 0 130 -21 14 -36 15 -103 6 -128 -17 -983 -32 -1151
-20 -266 18 -527 79 -686 159 -132 66 -466 262 -463 272 1 4 92 91 202 193
110 103 206 194 213 203 29 37 3 92 -43 92 -17 0 -94 -62 -261 -209z"/>
<path d="M6864 3003 c-9 -16 -57 -107 -107 -203 -87 -166 -94 -175 -128 -185
-21 -5 -46 -19 -58 -29 -25 -22 -28 -72 -7 -102 13 -18 3 -42 -119 -286 -74
-146 -158 -323 -186 -394 -46 -112 -53 -140 -56 -214 -4 -78 -2 -89 24 -139
70 -135 196 -117 345 50 228 254 379 581 395 854 8 132 -8 199 -62 253 -23 23
-52 42 -63 42 -18 0 -13 16 54 155 41 85 74 162 74 171 0 34 -20 54 -56 54
-28 0 -38 -6 -50 -27z m-61 -548 c8 -49 -9 -207 -32 -296 -45 -174 -151 -379
-281 -540 -78 -97 -129 -138 -143 -113 -18 31 -9 110 21 184 61 152 359 781
376 792 6 4 21 8 32 8 17 0 23 -8 27 -35z"/>
<path d="M9010 2523 c-14 -9 -40 -29 -58 -45 l-34 -29 -44 41 c-48 44 -79 50
-115 22 -34 -29 -30 -75 11 -117 21 -22 30 -38 24 -44 -5 -5 -52 -44 -104 -87
-293 -240 -514 -456 -561 -546 -56 -109 21 -226 161 -244 75 -9 205 20 300 68
109 54 243 185 307 298 85 151 119 313 93 442 l-12 62 61 54 c68 61 80 98 39
126 -28 20 -38 20 -68 -1z m-155 -360 c-29 -275 -230 -518 -464 -563 -86 -16
-119 -13 -147 15 -23 23 -24 26 -9 54 28 55 183 199 525 489 47 40 89 72 94
72 4 0 5 -30 1 -67z"/>
</g>
</svg>
